<svg xmlns="http://www.w3.org/2000/svg"  viewBox="0 0 48 48" width="96px" height="96px" clip-rule="evenodd" baseProfile="basic"><path fill-rule="evenodd" d="M5.003,23.998v2.001h2.001v-2.001	H5.003z" clip-rule="evenodd"/><path fill-rule="evenodd" d="M23.003,2.998v2.001h2.001V2.998	H23.003z" clip-rule="evenodd"/><path fill-rule="evenodd" d="M33.003,3.997v2.001h2.001V3.997	H33.003z" clip-rule="evenodd"/><path fill-rule="evenodd" d="M41.003,7.997v2.001h2.001V7.997	H41.003z" clip-rule="evenodd"/><path fill-rule="evenodd" d="M42.003,15.997v2.001h2.001v-2.001	H42.003z" clip-rule="evenodd"/><path fill-rule="evenodd" d="M40.003,25.997v2.001h2.001v-2.001	H40.003z" clip-rule="evenodd"/><path fill-rule="evenodd" d="M14.891,42.186l-1.06-0.983	l-1.38,0.689c-0.589,0.295-1.299-0.052-1.428-0.697l-0.777-3.889l-1.925,0.641c-0.548,0.183-1.136-0.135-1.284-0.693	c-0.905-3.424-2.032-7.095-2.032-11.256c0-13.573,9.709-22,19-22c0.649,0,1.127,0.613,0.969,1.243l-0.543,2.167l0.857-0.316	c2.697-0.92,5.532-1.652,8.576-2.083c0.831-0.117,1.428,0.785,0.997,1.504l-1.935,3.223l3.375-0.447	c1.833-0.181,3.708-0.291,5.703-0.291c0.888,0,1.335,1.08,0.707,1.708l-3.211,3.209l4.128,3.303	c0.569,0.455,0.475,1.349-0.177,1.675l-3.023,1.512l0.367,0.792c0.855,2.177,1.207,5.129,1.207,6.801	c0,4.541-1.435,10.099-4.145,14.523c-0.296,0.484-0.935,0.624-1.407,0.311l-2.348-1.563l-0.989,0.917	c-3.557,3.192-6.289,4.812-9.111,4.812C21.177,46.998,18.447,45.378,14.891,42.186z" clip-rule="evenodd"/><path fill="#fff" fill-rule="evenodd" d="M24.002,43.998	c-2.781,0-5.619-1.821-9.997-6l-2,1l-1-5l-3,1c-0.92-3.476-2-7-2-11c0-13.076,9.316-21,18-21l-1,4c3.428-1.356,7.039-2.44,11-3l-3,5	c3.637-0.575,7.087-1,11-1l-4,4l5,4l-4,2c1.352,1.603,1.997,5.775,1.997,8c0,4.361-1.385,9.737-3.997,14l-3.003-2	C29.623,42.177,26.783,43.998,24.002,43.998z" clip-rule="evenodd"/><path fill-rule="evenodd" d="M13.005,37.998v-20	c0-2.207,1.789-4.003,4-4.003h13.995c2.209,0,4,1.796,4,4.003v20c0,0.552-0.449,1-1,1c-0.552,0-1-0.448-1-1v-20	c0-1.104-0.899-2.003-2-2.003H17.005c-1.103,0-2,0.899-2,2.003v20c0,0.552-0.449,1-1,1C13.453,38.998,13.005,38.55,13.005,37.998z" clip-rule="evenodd"/><path fill-rule="evenodd" d="M13.831,39.203l-1.38,0.689	c-0.589,0.295-1.299-0.052-1.428-0.697l-0.777-3.889l-1.925,0.641c-0.548,0.183-1.136-0.135-1.284-0.693	c-0.905-3.424-2.032-7.095-2.032-11.256c0-13.573,9.709-22,19-22c0.649,0,1.127,0.613,0.969,1.243l-0.543,2.167l0.857-0.316	c2.697-0.92,5.532-1.652,8.576-2.083c0.831-0.117,1.428,0.785,0.997,1.504l-1.935,3.223l3.375-0.447	c1.833-0.181,3.708-0.291,5.703-0.291c0.888,0,1.335,1.08,0.707,1.708l-3.211,3.209l4.128,3.303	c0.569,0.455,0.475,1.349-0.177,1.675l-3.023,1.512l0.367,0.792c0.855,2.177,1.207,5.129,1.207,6.801	c0,4.541-1.435,10.099-4.145,14.523c-0.296,0.484-0.935,0.624-1.407,0.311l-2.348-1.563l-0.989,0.917	c-3.557,3.192-6.289,4.812-9.111,4.812c-2.825,0-5.555-1.62-9.111-4.812L13.831,39.203z M33.311,37.275	c0.337-0.323,0.855-0.368,1.244-0.109l2.104,1.403l0.379-0.676c1.94-3.8,2.964-8.235,2.964-11.895c0-2.213-0.668-6.059-1.763-7.355	c-0.416-0.495-0.261-1.249,0.317-1.539l2.603-1.301l-3.78-3.024c-0.465-0.372-0.504-1.067-0.083-1.488l2.227-2.227l-0.325,0.008	c-2.741,0.144-5.327,0.485-8.037,0.913c-0.837,0.132-1.449-0.776-1.015-1.501l1.872-3.12l-0.715,0.127	c-2.783,0.591-5.403,1.437-7.932,2.437c-0.755,0.299-1.535-0.384-1.337-1.172l0.671-2.684l-0.223,0.012	C14.845,4.946,7.005,12.207,7.005,23.998c0,2.88,0.58,5.5,1.264,8.119l0.427,1.597l1.992-0.664c0.571-0.191,1.18,0.163,1.297,0.752	l0.743,3.717l0.829-0.415c0.377-0.189,0.832-0.12,1.137,0.171c4.401,4.199,6.972,5.723,9.308,5.723	C26.338,42.998,28.911,41.474,33.311,37.275z" clip-rule="evenodd"/><path fill-rule="evenodd" d="M21.005,19.498	c0-0.791,0.408-1.427,0.968-1.851c0.555-0.419,1.277-0.649,1.992-0.648l0.141-0.003c0.712,0.013,1.631,0.344,2.297,0.789	l0.061,0.044l0.685-0.685c0.196-0.195,0.512-0.195,0.708,0c0.195,0.196,0.195,0.512,0,0.708l-1,1	c-0.192,0.192-0.504,0.195-0.7,0.007c-0.505-0.483-1.576-0.897-2.187-0.861c-0.519,0-1.027,0.168-1.395,0.447	c-0.364,0.275-0.572,0.639-0.572,1.053c0,0.636,0.835,1.5,1.701,1.5c0.4,0,0.759-0.088,0.999-0.225c0.231-0.132,0.3-0.267,0.3-0.397	c0-0.127-0.236-0.377-0.5-0.377c-0.184,0-0.367,0.1-0.431,0.2c-0.148,0.232-0.459,0.3-0.691,0.151	c-0.232-0.148-0.3-0.459-0.151-0.691c0.287-0.447,0.82-0.66,1.272-0.66c0.704,0,1.5,0.576,1.5,1.377	c0,0.593-0.371,1.017-0.803,1.265c-0.428,0.245-0.968,0.357-1.496,0.357C22.342,21.998,21.005,20.742,21.005,19.498z" clip-rule="evenodd"/><path fill-rule="evenodd" d="M21.271,19.053l-1.061,1.905	c-0.223,0.397-0.571,1.04,0.872,1.04h2.664l-1.716-1.215L21.271,19.053z" clip-rule="evenodd"/><path fill-rule="evenodd" d="M14.005,24.998c0-0.551,0.448-1,1-1	h18c0.551,0,1,0.449,1,1c0,0.552-0.449,1-1,1h-18C14.453,25.998,14.005,25.55,14.005,24.998z" clip-rule="evenodd"/><path fill-rule="evenodd" d="M25.455,32.998h-2.901	c-0.536,0-0.675,0.48-0.439,0.765c0.456,0.549,1.193,1.235,1.889,1.235c0.696,0,1.433-0.685,1.889-1.235	C26.13,33.478,25.991,32.998,25.455,32.998z" clip-rule="evenodd"/><path fill-rule="evenodd" d="M21.005,37.998c0-0.551,0.448-1,1-1h4	c0.551,0,1,0.449,1,1c0,0.552-0.449,1-1,1h-4C21.453,38.998,21.005,38.55,21.005,37.998z" clip-rule="evenodd"/><path fill-rule="evenodd" d="M17.505,26.997	c0.828,0,1.501,0.673,1.501,1.501c0,0.828-0.673,1.501-1.501,1.501c-0.828,0-1.501-0.673-1.501-1.501	C16.003,27.67,16.677,26.997,17.505,26.997z" clip-rule="evenodd"/><path fill-rule="evenodd" d="M17.506,25.998	c1.543,0,2.877,0.819,3.5,2h-7.001C14.627,26.817,15.962,25.998,17.506,25.998z" clip-rule="evenodd"/><path fill-rule="evenodd" d="M30.497,26.997	c-0.828,0-1.501,0.673-1.501,1.501c0,0.828,0.673,1.501,1.501,1.501c0.828,0,1.501-0.673,1.501-1.501	C31.998,27.67,31.325,26.997,30.497,26.997z" clip-rule="evenodd"/><path fill-rule="evenodd" d="M30.495,25.998	c-1.543,0-2.877,0.819-3.5,2h7.001C33.374,26.817,32.039,25.998,30.495,25.998z" clip-rule="evenodd"/></svg>